<svg xmlns="http://www.w3.org/2000/svg" xmlns:xlink="http://www.w3.org/1999/xlink" viewBox="0 0 144.43 144.43">
    <defs>
        <style>.cls-1,.cls-2{stroke:#000;stroke-miterlimit:10;}.cls-1{fill:url(#linear-gradient);}.cls-2{fill:#fff;}
        </style>
        <linearGradient id="linear-gradient" x1="72.21" y1="0.5" x2="72.21" y2="143.93" gradientUnits="userSpaceOnUse">
            <stop offset="0" stop-color="#c52270"/>
            <stop offset="1" stop-color="#552653"/>
        </linearGradient>
    </defs>
    <g id="Layer_2" data-name="Layer 2">
        <g id="Layer_1-2" data-name="Layer 1">
            <rect class="cls-1" x="0.5" y="0.5" width="143.43" height="143.43" rx="20.96"/>
            <path class="cls-2"
                  d="M112.7,77.54a22.21,22.21,0,0,0-9.08-6.88,1.74,1.74,0,0,1-.26-3.07,21.3,21.3,0,0,0,9.34-17.07A20.5,20.5,0,0,0,110,39.44a23,23,0,0,0-6.89-7.5,23.27,23.27,0,0,0-9.36-3.7,102.59,102.59,0,0,0-15.89-.89h-27a8.9,8.9,0,0,0-8.91,8.9V41.9L26.8,33.16V69.3l15.14-8.75v8.52A8.91,8.91,0,0,0,50.85,78H74.69q12.36,0,16.07,1.28a11.09,11.09,0,0,1,5.66,4.11,11.65,11.65,0,0,1,2,6.85,11,11,0,0,1-2.54,7.62,11.24,11.24,0,0,1-6.58,3.58q-2.64.56-12.43.55h-15a1.79,1.79,0,0,1-1.8-1.79h0a8.91,8.91,0,0,0-8.9-8.91h-.31a8.91,8.91,0,0,0-8.91,8.91v8a8.9,8.9,0,0,0,8.91,8.9H72.49q17.31-.12,21.85-.61a25.77,25.77,0,0,0,12.15-4.25,24.06,24.06,0,0,0,7.77-9.25,26.6,26.6,0,0,0,2.85-11.9A21.62,21.62,0,0,0,112.7,77.54Zm-20.29-18a12,12,0,0,1-7.31,3.22q-2.58.3-13.16.3H61.86a1.79,1.79,0,0,1-1.8-1.79V44.08a1.8,1.8,0,0,1,1.8-1.8h8.61q12.8,0,15.48.31a10.43,10.43,0,0,1,6.83,3.15,9.86,9.86,0,0,1,2.29,6.77A9.44,9.44,0,0,1,92.41,59.51Z"/>
        </g>
    </g>
</svg>