<svg xmlns="http://www.w3.org/2000/svg" xmlns:xlink="http://www.w3.org/1999/xlink" viewBox="0 0 235.24 99.52">
    <defs>
        <style>
            .cls-1,.cls-4{fill:#333;}.cls-1,.cls-2,.cls-3,.cls-4{stroke:#000;stroke-miterlimit:10;}.cls-2{fill:url(#linear-gradient);}.cls-3{fill:url(#linear-gradient-2);}.cls-4{font-size:23.97px;font-family:AgencyFB-Reg,
            Agency FB;}.cls-5{font-family:MyriadHebrew-Regular, Myriad Hebrew;}
        </style>
        <linearGradient id="linear-gradient" x1="97.7" y1="7.26" x2="112.32" y2="7.26" gradientUnits="userSpaceOnUse">
            <stop offset="0" stop-color="#c52270"/>
            <stop offset="1" stop-color="#542653"/>
        </linearGradient>
        <linearGradient id="linear-gradient-2" x1="37.38" y1="1.09" x2="37.38" y2="77.39"
                        xlink:href="#linear-gradient"/>
    </defs>
    <g id="Layer_2" data-name="Layer 2">
        <g id="Layer_1-2" data-name="Layer 1">
            <path class="cls-1" d="M78.64,7.86a7.31,7.31,0,0,1,14.62,0l.12,61.64a7.31,7.31,0,1,1-14.62,0Z"/>
            <path class="cls-2" d="M104.45.5h1.09a6.76,6.76,0,1,1,0,13.52h-1.1a6.77,6.77,0,0,1,0-13.53Z"/>
            <rect class="cls-1" x="97.78" y="21.52" width="14.62" height="55.24" rx="6.76"
                  transform="translate(-0.09 0.2) rotate(-0.11)"/>
            <path class="cls-1"
                  d="M170.73,48.7q0,13.85-6.73,21.52a21.06,21.06,0,0,1-16.37,7.71,18.68,18.68,0,0,1-8.3-1.81,23.69,23.69,0,0,1-5.3-3.71,1.51,1.51,0,0,0-2.53,1.09l0,17.41a6.81,6.81,0,0,1-6.8,6.83h-1a6.8,6.8,0,0,1-6.82-6.8l-.06-28.66a7.56,7.56,0,0,1,7.55-7.58h2a7.79,7.79,0,0,1,7,4.65,12.11,12.11,0,0,0,10.61,7,10.53,10.53,0,0,0,8.47-4.1q3.38-4.08,3.36-13.4,0-8.69-3.51-12.89a10.79,10.79,0,0,0-8.64-4.2,11.22,11.22,0,0,0-8.89,4.15,12.17,12.17,0,0,0-1.75,2.8,7.76,7.76,0,0,1-7,4.71h-1.69a7.56,7.56,0,0,1-7.58-7.55V28.31a6.87,6.87,0,0,1,9.94-6.13c2.39,1.08,3.36,3.66,3.69,6.27a1.18,1.18,0,0,0,2.18.42c1.4-2.42,3.07-5,5-6.06a19.74,19.74,0,0,1,10-2.62A21.06,21.06,0,0,1,164,27.7Q170.7,35.23,170.73,48.7Z"/>
            <path class="cls-1"
                  d="M210.33,51.11a6.51,6.51,0,0,1,6.12,8.73l-5.34,14.64-3.47,9.63A40.12,40.12,0,0,1,204,91.5a16,16,0,0,1-4,4.14,17.48,17.48,0,0,1-5.56,2.48A28.43,28.43,0,0,1,187,99a39,39,0,0,1-4.05-.2,5.28,5.28,0,0,1-4.68-4.66l-.09-.77a5.39,5.39,0,0,1,5.37-6h.05q5.1,0,7.54-3a12.46,12.46,0,0,0,2-12.27L176.43,28.52a5.28,5.28,0,0,1,4.92-7.15h4.12a5.29,5.29,0,0,1,5,3.58l10.61,31.31a1.51,1.51,0,0,0,2.87,0l.21-.64A6.51,6.51,0,0,1,210.33,51.11Z"/>
            <path class="cls-3"
                  d="M70.5,43.69a18.91,18.91,0,0,0-7.73-5.84,1.48,1.48,0,0,1-.22-2.61,18.1,18.1,0,0,0,7.9-14.52,17.37,17.37,0,0,0-2.35-9.41A19.56,19.56,0,0,0,62.23,5a19.73,19.73,0,0,0-8-3.13,87.92,87.92,0,0,0-13.5-.73l-22.92,0A7.56,7.56,0,0,0,10.3,8.71v4.7L.5,6.1l0,15.35,0,15.36,9.78-7.35V36.6a7.57,7.57,0,0,0,7.58,7.55l20.27,0q10.5,0,13.65,1.07a9.34,9.34,0,0,1,4.82,3.48,10,10,0,0,1,1.68,5.82A9.39,9.39,0,0,1,56.2,61,9.55,9.55,0,0,1,50.62,64a68.78,68.78,0,0,1-10.56.49l-12.73,0A1.54,1.54,0,0,1,25.8,63h0a7.56,7.56,0,0,0-7.58-7.55H18A7.58,7.58,0,0,0,10.4,63l0,6.81A7.56,7.56,0,0,0,18,77.39l18.39,0Q51.11,77.22,55,76.8a21.9,21.9,0,0,0,10.32-3.63,20.53,20.53,0,0,0,6.59-7.87,22.85,22.85,0,0,0,2.4-10.12A18.38,18.38,0,0,0,70.5,43.69ZM53.23,28.4A10.17,10.17,0,0,1,47,31.14q-2.19.27-11.19.28l-8.56,0a1.52,1.52,0,0,1-1.53-1.52l0-14.58a1.52,1.52,0,0,1,1.52-1.53l7.32,0q10.88,0,13.16.24a8.83,8.83,0,0,1,5.81,2.67,8.39,8.39,0,0,1,2,5.74A8.09,8.09,0,0,1,53.23,28.4Z"/>
            <text class="cls-4" transform="translate(217.58 51.84) rotate(-64.64)">.
                <tspan class="cls-5" x="4.58" y="0">t</tspan>
                <tspan x="13.71" y="0">v</tspan>
            </text>
        </g>
    </g>
</svg>